<svg width="505" height="191" viewBox="0 0 505 191" fill="none" xmlns="http://www.w3.org/2000/svg">
<path d="M117.956 172.835C113.412 172.835 109.316 171.811 105.668 169.763C102.02 167.651 99.14 164.803 97.028 161.219C94.916 157.635 93.86 153.571 93.86 149.027C93.86 144.547 94.884 140.515 96.932 136.931C99.044 133.347 101.86 130.531 105.38 128.483C108.964 126.371 112.964 125.315 117.38 125.315C121.604 125.315 125.316 126.275 128.516 128.195C131.78 130.115 134.308 132.771 136.1 136.163C137.956 139.555 138.884 143.395 138.884 147.683C138.884 148.323 138.852 149.027 138.788 149.795C138.724 150.499 138.596 151.331 138.404 152.291H99.908V145.091H133.796L130.628 147.875C130.628 144.803 130.084 142.211 128.996 140.099C127.908 137.923 126.372 136.259 124.388 135.107C122.404 133.891 120.004 133.283 117.188 133.283C114.244 133.283 111.652 133.923 109.412 135.203C107.172 136.483 105.444 138.275 104.228 140.579C103.012 142.883 102.404 145.603 102.404 148.739C102.404 151.939 103.044 154.755 104.324 157.187C105.604 159.555 107.428 161.411 109.796 162.755C112.164 164.035 114.884 164.675 117.956 164.675C120.516 164.675 122.852 164.227 124.964 163.331C127.14 162.435 128.996 161.091 130.532 159.299L136.1 164.963C133.924 167.523 131.236 169.475 128.036 170.819C124.9 172.163 121.54 172.835 117.956 172.835ZM183.441 171.875V145.283C183.441 141.827 182.353 138.979 180.177 136.739C178.001 134.499 175.185 133.379 171.729 133.379C169.425 133.379 167.377 133.891 165.585 134.915C163.793 135.939 162.385 137.347 161.361 139.139C160.337 140.931 159.825 142.979 159.825 145.283L156.273 143.267C156.273 139.811 157.041 136.739 158.577 134.051C160.113 131.363 162.257 129.251 165.009 127.715C167.761 126.115 170.865 125.315 174.321 125.315C177.777 125.315 180.817 126.179 183.441 127.907C186.129 129.635 188.241 131.907 189.777 134.723C191.313 137.475 192.081 140.419 192.081 143.555V171.875H183.441ZM151.185 171.875V126.275H159.825V171.875H151.185ZM213.104 171.875V107.171H221.744V171.875H213.104ZM201.872 134.147V126.275H232.976V134.147H201.872ZM244.416 171.875V126.275H253.056V171.875H244.416ZM248.736 117.155C247.136 117.155 245.824 116.643 244.8 115.619C243.776 114.531 243.264 113.187 243.264 111.587C243.264 110.051 243.776 108.771 244.8 107.747C245.824 106.659 247.136 106.115 248.736 106.115C250.336 106.115 251.648 106.659 252.672 107.747C253.696 108.771 254.208 110.051 254.208 111.587C254.208 113.187 253.696 114.531 252.672 115.619C251.648 116.643 250.336 117.155 248.736 117.155ZM275.677 171.875V107.171H284.317V171.875H275.677ZM264.445 134.147V126.275H295.549V134.147H264.445ZM321.868 172.259L302.092 126.275H311.692L326.38 162.275H323.308L338.764 126.275H348.364L327.052 172.259H321.868ZM308.812 190.979L322.252 163.427L327.052 172.259L318.412 190.979H308.812Z" fill="black"/>
<path d="M361.412 162.875V154.475H366.608V155.303H362.42V158.231H366.248V159.047H362.42V162.047H366.608V162.875H361.412ZM370.597 162.875V154.475H371.605L376.081 161.219V154.475H377.089V162.875H376.081L371.605 156.131V162.875H370.597ZM383.25 162.875V155.303H380.742V154.475H386.766V155.303H384.258V162.875H383.25ZM390.421 162.875V154.475H395.617V155.303H391.429V158.231H395.257V159.047H391.429V162.047H395.617V162.875H390.421ZM399.606 162.875V154.475H402.318C402.974 154.475 403.51 154.587 403.926 154.811C404.342 155.027 404.65 155.319 404.85 155.687C405.05 156.055 405.15 156.471 405.15 156.935C405.15 157.383 405.046 157.795 404.838 158.171C404.638 158.547 404.326 158.847 403.902 159.071C403.478 159.295 402.934 159.407 402.27 159.407H400.614V162.875H399.606ZM404.046 162.875L402.198 159.119H403.326L405.234 162.875H404.046ZM400.614 158.615H402.246C402.886 158.615 403.354 158.459 403.65 158.147C403.954 157.835 404.106 157.435 404.106 156.947C404.106 156.451 403.958 156.059 403.662 155.771C403.374 155.475 402.898 155.327 402.234 155.327H400.614V158.615ZM416.674 162.875V155.303H414.166V154.475H420.19V155.303H417.682V162.875H416.674ZM429.209 162.875V154.475H430.217V162.875H429.209ZM423.845 162.875V154.475H424.853V162.875H423.845ZM424.661 159.011V158.183H429.461V159.011H424.661ZM434.413 162.875V154.475H439.609V155.303H435.421V158.231H439.249V159.047H435.421V162.047H439.609V162.875H434.413ZM452.185 163.019C451.609 163.019 451.085 162.903 450.613 162.671C450.149 162.439 449.777 162.087 449.497 161.615C449.217 161.135 449.077 160.523 449.077 159.779V154.475H450.085V159.791C450.085 160.335 450.173 160.779 450.349 161.123C450.533 161.467 450.785 161.719 451.105 161.879C451.425 162.039 451.793 162.119 452.209 162.119C452.633 162.119 453.001 162.039 453.313 161.879C453.625 161.719 453.869 161.467 454.045 161.123C454.221 160.779 454.309 160.335 454.309 159.791V154.475H455.317V159.779C455.317 160.523 455.177 161.135 454.897 161.615C454.617 162.087 454.241 162.439 453.769 162.671C453.297 162.903 452.769 163.019 452.185 163.019ZM459.449 162.875V154.475H460.457L464.933 161.219V154.475H465.941V162.875H464.933L460.457 156.131V162.875H459.449ZM472.81 163.019C472.194 163.019 471.658 162.907 471.202 162.683C470.746 162.459 470.394 162.147 470.146 161.747C469.898 161.347 469.774 160.883 469.774 160.355H470.83C470.83 160.683 470.906 160.987 471.058 161.267C471.21 161.539 471.43 161.759 471.718 161.927C472.014 162.087 472.378 162.167 472.81 162.167C473.186 162.167 473.506 162.107 473.77 161.987C474.042 161.859 474.246 161.687 474.382 161.471C474.526 161.255 474.598 161.011 474.598 160.739C474.598 160.411 474.526 160.147 474.382 159.947C474.246 159.739 474.058 159.571 473.818 159.443C473.578 159.315 473.298 159.203 472.978 159.107C472.666 159.003 472.338 158.895 471.994 158.783C471.33 158.559 470.842 158.279 470.53 157.943C470.218 157.607 470.062 157.171 470.062 156.635C470.062 156.179 470.166 155.779 470.374 155.435C470.59 155.091 470.894 154.823 471.286 154.631C471.686 154.431 472.158 154.331 472.702 154.331C473.238 154.331 473.702 154.431 474.094 154.631C474.494 154.831 474.806 155.107 475.03 155.459C475.254 155.803 475.366 156.203 475.366 156.659H474.31C474.31 156.427 474.25 156.199 474.13 155.975C474.01 155.751 473.826 155.567 473.578 155.423C473.338 155.271 473.034 155.195 472.666 155.195C472.362 155.187 472.09 155.239 471.85 155.351C471.618 155.455 471.434 155.607 471.298 155.807C471.17 156.007 471.106 156.251 471.106 156.539C471.106 156.811 471.162 157.031 471.274 157.199C471.394 157.367 471.562 157.511 471.778 157.631C472.002 157.743 472.262 157.847 472.558 157.943C472.854 158.039 473.182 158.147 473.542 158.267C473.95 158.403 474.31 158.571 474.622 158.771C474.942 158.963 475.19 159.211 475.366 159.515C475.55 159.819 475.642 160.207 475.642 160.679C475.642 161.079 475.534 161.459 475.318 161.819C475.11 162.171 474.798 162.459 474.382 162.683C473.966 162.907 473.442 163.019 472.81 163.019ZM479.507 162.875V154.475H484.703V155.303H480.515V158.231H484.343V159.047H480.515V162.047H484.703V162.875H479.507ZM488.692 162.875V154.475H493.888V155.303H489.7V158.231H493.528V159.047H489.7V162.047H493.888V162.875H488.692ZM497.877 162.875V154.475H498.885L503.361 161.219V154.475H504.369V162.875H503.361L498.885 156.131V162.875H497.877ZM365.072 179.019C364.288 179.019 363.592 178.839 362.984 178.479C362.384 178.111 361.916 177.603 361.58 176.955C361.244 176.299 361.076 175.539 361.076 174.675C361.076 173.819 361.244 173.067 361.58 172.419C361.916 171.763 362.384 171.251 362.984 170.883C363.592 170.515 364.288 170.331 365.072 170.331C365.88 170.331 366.584 170.515 367.184 170.883C367.784 171.251 368.248 171.763 368.576 172.419C368.912 173.067 369.08 173.819 369.08 174.675C369.08 175.539 368.912 176.299 368.576 176.955C368.248 177.603 367.784 178.111 367.184 178.479C366.584 178.839 365.88 179.019 365.072 179.019ZM365.084 178.131C365.676 178.131 366.192 177.995 366.632 177.723C367.08 177.443 367.428 177.047 367.676 176.535C367.924 176.015 368.048 175.395 368.048 174.675C368.048 173.955 367.924 173.339 367.676 172.827C367.428 172.307 367.08 171.911 366.632 171.639C366.192 171.367 365.676 171.231 365.084 171.231C364.492 171.231 363.972 171.367 363.524 171.639C363.076 171.911 362.728 172.307 362.48 172.827C362.232 173.339 362.108 173.955 362.108 174.675C362.108 175.395 362.232 176.015 362.48 176.535C362.728 177.047 363.076 177.443 363.524 177.723C363.972 177.995 364.492 178.131 365.084 178.131ZM373.105 178.875V170.475H378.217V171.303H374.113V174.255H377.605V175.071H374.113V178.875H373.105ZM391.174 179.019C390.39 179.019 389.694 178.839 389.086 178.479C388.486 178.111 388.018 177.603 387.682 176.955C387.346 176.299 387.178 175.539 387.178 174.675C387.178 173.819 387.346 173.067 387.682 172.419C388.018 171.763 388.486 171.251 389.086 170.883C389.694 170.515 390.39 170.331 391.174 170.331C391.982 170.331 392.686 170.515 393.286 170.883C393.886 171.251 394.35 171.763 394.678 172.419C395.014 173.067 395.182 173.819 395.182 174.675C395.182 175.539 395.014 176.299 394.678 176.955C394.35 177.603 393.886 178.111 393.286 178.479C392.686 178.839 391.982 179.019 391.174 179.019ZM391.186 178.131C391.778 178.131 392.294 177.995 392.734 177.723C393.182 177.443 393.53 177.047 393.778 176.535C394.026 176.015 394.15 175.395 394.15 174.675C394.15 173.955 394.026 173.339 393.778 172.827C393.53 172.307 393.182 171.911 392.734 171.639C392.294 171.367 391.778 171.231 391.186 171.231C390.594 171.231 390.074 171.367 389.626 171.639C389.178 171.911 388.83 172.307 388.582 172.827C388.334 173.339 388.21 173.955 388.21 174.675C388.21 175.395 388.334 176.015 388.582 176.535C388.83 177.047 389.178 177.443 389.626 177.723C390.074 177.995 390.594 178.131 391.186 178.131ZM402.207 179.019C401.631 179.019 401.107 178.903 400.635 178.671C400.171 178.439 399.799 178.087 399.519 177.615C399.239 177.135 399.099 176.523 399.099 175.779V170.475H400.107V175.791C400.107 176.335 400.195 176.779 400.371 177.123C400.555 177.467 400.807 177.719 401.127 177.879C401.447 178.039 401.815 178.119 402.231 178.119C402.655 178.119 403.023 178.039 403.335 177.879C403.647 177.719 403.891 177.467 404.067 177.123C404.243 176.779 404.331 176.335 404.331 175.791V170.475H405.339V175.779C405.339 176.523 405.199 177.135 404.919 177.615C404.639 178.087 404.263 178.439 403.791 178.671C403.319 178.903 402.791 179.019 402.207 179.019ZM409.471 178.875V170.475H412.183C412.839 170.475 413.375 170.587 413.791 170.811C414.207 171.027 414.515 171.319 414.715 171.687C414.915 172.055 415.015 172.471 415.015 172.935C415.015 173.383 414.911 173.795 414.703 174.171C414.503 174.547 414.191 174.847 413.767 175.071C413.343 175.295 412.799 175.407 412.135 175.407H410.479V178.875H409.471ZM413.911 178.875L412.063 175.119H413.191L415.099 178.875H413.911ZM410.479 174.615H412.111C412.751 174.615 413.219 174.459 413.515 174.147C413.819 173.835 413.971 173.435 413.971 172.947C413.971 172.451 413.823 172.059 413.527 171.771C413.239 171.475 412.763 171.327 412.099 171.327H410.479V174.615ZM426.299 178.875L423.995 170.475H425.075L426.887 177.675L428.951 170.475H430.067L432.071 177.699L433.907 170.475H434.987L432.635 178.875H431.483L429.479 171.927L427.427 178.875H426.299ZM441.952 179.019C441.168 179.019 440.472 178.839 439.864 178.479C439.264 178.111 438.796 177.603 438.46 176.955C438.124 176.299 437.956 175.539 437.956 174.675C437.956 173.819 438.124 173.067 438.46 172.419C438.796 171.763 439.264 171.251 439.864 170.883C440.472 170.515 441.168 170.331 441.952 170.331C442.76 170.331 443.464 170.515 444.064 170.883C444.664 171.251 445.128 171.763 445.456 172.419C445.792 173.067 445.96 173.819 445.96 174.675C445.96 175.539 445.792 176.299 445.456 176.955C445.128 177.603 444.664 178.111 444.064 178.479C443.464 178.839 442.76 179.019 441.952 179.019ZM441.964 178.131C442.556 178.131 443.072 177.995 443.512 177.723C443.96 177.443 444.308 177.047 444.556 176.535C444.804 176.015 444.928 175.395 444.928 174.675C444.928 173.955 444.804 173.339 444.556 172.827C444.308 172.307 443.96 171.911 443.512 171.639C443.072 171.367 442.556 171.231 441.964 171.231C441.372 171.231 440.852 171.367 440.404 171.639C439.956 171.911 439.608 172.307 439.36 172.827C439.112 173.339 438.988 173.955 438.988 174.675C438.988 175.395 439.112 176.015 439.36 176.535C439.608 177.047 439.956 177.443 440.404 177.723C440.852 177.995 441.372 178.131 441.964 178.131ZM449.985 178.875V170.475H452.697C453.353 170.475 453.889 170.587 454.305 170.811C454.721 171.027 455.029 171.319 455.229 171.687C455.429 172.055 455.529 172.471 455.529 172.935C455.529 173.383 455.425 173.795 455.217 174.171C455.017 174.547 454.705 174.847 454.281 175.071C453.857 175.295 453.313 175.407 452.649 175.407H450.993V178.875H449.985ZM454.425 178.875L452.577 175.119H453.705L455.613 178.875H454.425ZM450.993 174.615H452.625C453.265 174.615 453.733 174.459 454.029 174.147C454.333 173.835 454.485 173.435 454.485 172.947C454.485 172.451 454.337 172.059 454.041 171.771C453.753 171.475 453.277 171.327 452.613 171.327H450.993V174.615ZM459.51 178.875V170.475H460.518V178.071H464.43V178.875H459.51ZM468.238 178.875V170.475H470.578C471.562 170.475 472.37 170.647 473.002 170.991C473.642 171.327 474.114 171.811 474.418 172.443C474.73 173.067 474.886 173.819 474.886 174.699C474.886 175.563 474.73 176.307 474.418 176.931C474.114 177.555 473.642 178.035 473.002 178.371C472.37 178.707 471.562 178.875 470.578 178.875H468.238ZM469.246 178.035H470.554C471.37 178.035 472.018 177.903 472.498 177.639C472.978 177.367 473.322 176.983 473.53 176.487C473.738 175.983 473.842 175.387 473.842 174.699C473.842 173.995 473.738 173.391 473.53 172.887C473.322 172.383 472.978 171.995 472.498 171.723C472.018 171.451 471.37 171.315 470.554 171.315H469.246V178.035Z" fill="black"/>
<path d="M60.5741 16.8747C15.2408 53.8747 -48.2259 121.875 60.5741 97.8747C169.374 73.8747 235.241 23.208 254.574 0.87471L335.574 150.875L60.5741 103.875" stroke="black"/>
</svg>
